<svg width="24" height="24" viewBox="0 0 24 24" fill="none" xmlns="http://www.w3.org/2000/svg">
<path d="M15 2C13.65 3.5 12.908 5 12.5 6.5M9 22C10.35 20.5 11.092 19 11.5 17.5" stroke="#404681" stroke-width="2" stroke-linecap="round" stroke-linejoin="round"/>
<path d="M2 15C5.333 12 8.667 12 12 12M22 9C20.5 10.35 19 11.092 17.5 11.5" stroke="#404681" stroke-width="2" stroke-linecap="round" stroke-linejoin="round"/>
<path d="M17 6L14.5 3.5" stroke="#404681" stroke-width="2" stroke-linecap="round" stroke-linejoin="round"/>
<path d="M14 8L12.5 6.5" stroke="#404681" stroke-width="2" stroke-linecap="round" stroke-linejoin="round"/>
<path d="M7 18L9.5 20.5" stroke="#404681" stroke-width="2" stroke-linecap="round" stroke-linejoin="round"/>
<path d="M3.5 14.5L4 15" stroke="#404681" stroke-width="2" stroke-linecap="round" stroke-linejoin="round"/>
<path d="M20 9L20.5 9.5" stroke="#404681" stroke-width="2" stroke-linecap="round" stroke-linejoin="round"/>
<path d="M6.5 12.5L7.5 13.5" stroke="#404681" stroke-width="2" stroke-linecap="round" stroke-linejoin="round"/>
<path d="M16.5 10.5L17.5 11.5" stroke="#404681" stroke-width="2" stroke-linecap="round" stroke-linejoin="round"/>
<path d="M10 16L11.5 17.5" stroke="#404681" stroke-width="2" stroke-linecap="round" stroke-linejoin="round"/>
<path d="M2 2L22 22" stroke="#404681" stroke-width="2" stroke-linecap="round" stroke-linejoin="round"/>
</svg>
