<svg width="24" height="24" viewBox="0 0 24 24" fill="none" xmlns="http://www.w3.org/2000/svg">
<path d="M9 18H15" stroke="#404681" stroke-width="2" stroke-linecap="round" stroke-linejoin="round"/>
<path d="M10 22H14" stroke="#404681" stroke-width="2" stroke-linecap="round" stroke-linejoin="round"/>
<path d="M2 2L22 22" stroke="#404681" stroke-width="2" stroke-linecap="round" stroke-linejoin="round"/>
<path d="M9 2.80397C9.9121 2.27737 10.9468 2.00013 12 2.00012C13.0532 2.00012 14.0878 2.27734 14.9999 2.80393C15.912 3.33052 16.6695 4.08793 17.1961 5.00002C17.7227 5.91212 18 6.94676 18 7.99997C18.0189 9.08978 17.6543 10.1516 16.97 11" stroke="#404681" stroke-width="2" stroke-linecap="round" stroke-linejoin="round"/>
<path d="M8.91 14C8.718 13.0379 8.22405 12.1621 7.5 11.5C6.23 10.23 6 9 6 8C6.00003 7.66491 6.02812 7.3304 6.084 7" stroke="#404681" stroke-width="2" stroke-linecap="round" stroke-linejoin="round"/>
</svg>
